<?xml version="1.0" encoding="utf-8"?>
<!-- Generator: Adobe Illustrator 21.0.0, SVG Export Plug-In . SVG Version: 6.00 Build 0)  -->
<svg version="1.1" id="图层_1" xmlns="http://www.w3.org/2000/svg" xmlns:xlink="http://www.w3.org/1999/xlink" x="0px" y="0px"
	 width="80px" height="80px" viewBox="0 0 80 80" enable-background="new 0 0 80 80" xml:space="preserve">
<path fill="#848484" d="M76.875,36.875H51.676l7.55-3.203c0.7-0.297,1.03-1.113,0.733-1.813l-0.236-0.555
	c-0.297-0.7-1.113-1.03-1.813-0.733l-7.503,3.184l16.606-16.606c0.94-0.94,0.94-2.478,0-3.418l-0.745-0.745
	c-0.94-0.94-2.478-0.94-3.418,0L45.873,29.964l3.247-8.034c0.285-0.705-0.059-1.515-0.764-1.8l-0.559-0.226
	c-0.705-0.285-1.515,0.059-1.8,0.764l-2.873,7.107V3.125C43.125,1.406,41.719,0,40,0s-3.125,1.406-3.125,3.125v25.198l-3.203-7.549
	c-0.297-0.7-1.113-1.03-1.813-0.733l-0.555,0.235c-0.7,0.297-1.03,1.113-0.733,1.813l3.183,7.503L17.149,12.986
	c-0.94-0.94-2.478-0.94-3.418,0l-0.745,0.745c-0.94,0.94-0.94,2.478,0,3.418l16.978,16.978l-8.034-3.247
	c-0.705-0.285-1.515,0.059-1.8,0.764l-0.226,0.558c-0.285,0.705,0.059,1.515,0.764,1.8l7.107,2.873H3.125
	C1.406,36.875,0,38.281,0,40s1.406,3.125,3.125,3.125h25.198l-7.549,3.203c-0.7,0.297-1.03,1.113-0.733,1.813l0.236,0.554
	c0.297,0.7,1.113,1.03,1.813,0.733l7.503-3.183L12.986,62.851c-0.94,0.94-0.94,2.478,0,3.418l0.745,0.745
	c0.94,0.94,2.478,0.94,3.418,0l16.978-16.978l-3.247,8.034c-0.285,0.705,0.059,1.515,0.764,1.8l0.558,0.226
	c0.705,0.285,1.515-0.059,1.8-0.764l2.873-7.107v24.651C36.875,78.594,38.281,80,40,80s3.125-1.406,3.125-3.125V51.676l3.203,7.549
	c0.297,0.7,1.113,1.03,1.813,0.733l0.555-0.235c0.7-0.297,1.03-1.113,0.733-1.813l-3.183-7.503l16.606,16.606
	c0.94,0.94,2.478,0.94,3.418,0l0.745-0.745c0.94-0.94,0.94-2.478,0-3.418L50.035,45.872l8.034,3.248
	c0.705,0.285,1.515-0.059,1.8-0.764l0.226-0.558c0.285-0.705-0.059-1.515-0.764-1.8l-7.107-2.873h24.651
	C78.594,43.125,80,41.719,80,40S78.594,36.875,76.875,36.875z"/>
</svg>
