<?xml version="1.0" encoding="utf-8"?>
<!-- Generator: Adobe Illustrator 21.0.0, SVG Export Plug-In . SVG Version: 6.00 Build 0)  -->
<svg version="1.1" id="图层_1" xmlns="http://www.w3.org/2000/svg" xmlns:xlink="http://www.w3.org/1999/xlink" x="0px" y="0px"
	 width="80px" height="80px" viewBox="0 0 80 80" enable-background="new 0 0 80 80" xml:space="preserve">
<g>
	<path fill="#848484" d="M80,42.231c0-22-18-40-40-40c-22,0-40,18-40,40v0c0,11,4.5,21,11.75,28.25l2.955-2.955
		C8.224,61.045,4.211,52.098,4.211,42.231C4.211,22.496,20.266,6.441,40,6.441c19.735,0,35.789,16.055,35.789,35.79
		c0,9.615-3.83,18.337-10.021,24.774l-5.611-5.611l-2.977,16.375l16.375-2.977l-4.832-4.832C75.684,62.754,80,52.979,80,42.231
		L80,42.231z"/>
	<path fill="#848484" d="M40,23.769c-8.433,0-15.294,6.861-15.294,15.294c0,4.086,1.591,7.927,4.479,10.815L40,60.692l10.813-10.815
		c2.889-2.89,4.481-6.73,4.481-10.815C55.295,30.63,48.433,23.769,40,23.769z M40,45.837c-3.735,0-6.774-3.038-6.774-6.774
		c0-3.734,3.039-6.771,6.774-6.771c3.733,0,6.771,3.038,6.771,6.771C46.772,42.798,43.733,45.837,40,45.837z"/>
</g>
</svg>
