<?xml version="1.0" encoding="utf-8"?>
<!-- Generator: Adobe Illustrator 21.0.0, SVG Export Plug-In . SVG Version: 6.00 Build 0)  -->
<svg version="1.1" id="图层_1" xmlns="http://www.w3.org/2000/svg" xmlns:xlink="http://www.w3.org/1999/xlink" x="0px" y="0px"
	 width="80px" height="80px" viewBox="0 0 80 80" enable-background="new 0 0 80 80" xml:space="preserve">
<g>
	<path fill="#848484" d="M22.058,17.942C9.926,17.942,0,27.868,0,40s9.926,22.058,22.058,22.058S44.115,52.132,44.115,40
		S34.189,17.942,22.058,17.942z M22.058,54.156c-7.806,0-14.156-6.35-14.156-14.156s6.351-14.156,14.156-14.156
		c7.806,0,14.156,6.35,14.156,14.156S29.864,54.156,22.058,54.156z"/>
	<path fill="#848484" d="M73.306,44.564c2.112,0,3.841-1.728,3.841-3.841c0-2.112-1.728-3.841-3.841-3.841H48.505
		c-2.112,0-3.841,1.728-3.841,3.841c0,2.112,1.728,3.841,3.841,3.841H73.306z"/>
	<path fill="#848484" d="M76.159,52.575H51.358c-2.112,0-3.841,1.728-3.841,3.841c0,2.113,1.728,3.841,3.841,3.841h24.801
		c2.112,0,3.841-1.728,3.841-3.841C80,54.303,78.272,52.575,76.159,52.575z"/>
	<path fill="#848484" d="M51.358,28.871h24.801c2.112,0,3.841-1.728,3.841-3.841c0-2.113-1.728-3.841-3.841-3.841H51.358
		c-2.112,0-3.841,1.728-3.841,3.841C47.517,27.143,49.246,28.871,51.358,28.871z"/>
</g>
</svg>
