<?xml version="1.0" encoding="utf-8"?>
<!-- Generator: Adobe Illustrator 21.0.0, SVG Export Plug-In . SVG Version: 6.00 Build 0)  -->
<svg version="1.1" id="图层_1" xmlns="http://www.w3.org/2000/svg" xmlns:xlink="http://www.w3.org/1999/xlink" x="0px" y="0px"
	 width="80px" height="80px" viewBox="0 0 80 80" enable-background="new 0 0 80 80" xml:space="preserve">
<path fill="#848484" d="M60.541,13.204H49.563h-3.75H21.666c-4.564,0-8.298,3.734-8.298,8.298v15.454L3.161,47.163h10.207v1.616
	v3.75v5.969c0,4.564,3.734,8.298,8.298,8.298h24.147h3.75h10.978c4.564,0,8.298-3.734,8.298-8.298v-5.969v-3.75V21.502
	C68.839,16.938,65.105,13.204,60.541,13.204z M64.054,48.779v3.75v5.969c0,1.938-1.576,3.514-3.514,3.514H49.563h-3.75H21.666
	c-1.938,0-3.514-1.576-3.514-3.514v-5.969v-3.75v-1.616h9.839l-9.839-9.839V21.502c0-1.938,1.576-3.514,3.514-3.514h24.147h3.75
	h10.978c1.937,0,3.514,1.576,3.514,3.514V48.779z"/>
</svg>
