<?xml version="1.0" encoding="utf-8"?>
<!-- Generator: Adobe Illustrator 21.0.0, SVG Export Plug-In . SVG Version: 6.00 Build 0)  -->
<svg version="1.1" id="图层_1" xmlns="http://www.w3.org/2000/svg" xmlns:xlink="http://www.w3.org/1999/xlink" x="0px" y="0px"
	 width="80px" height="80px" viewBox="0 0 80 80" enable-background="new 0 0 80 80" xml:space="preserve">
<g>
	<path fill="#848484" d="M67.527,36.386L36.444,15.769c-0.025-0.017-0.051-0.033-0.076-0.05c-3.434-2.209-7.957,0.6-7.957,4.682
		v39.197c0,4.083,4.524,6.891,7.957,4.682c0.025-0.016,0.051-0.033,0.076-0.05l31.083-20.617
		C70.113,41.899,70.113,38.102,67.527,36.386z"/>
	<path fill="#848484" d="M20.487,14.944h-5.993c-2.187,0-3.96,1.773-3.96,3.96v42.191c0,2.187,1.773,3.96,3.96,3.96h5.993
		c2.187,0,3.96-1.773,3.96-3.96V18.904C24.447,16.717,22.674,14.944,20.487,14.944z"/>
</g>
</svg>
