<?xml version="1.0" encoding="utf-8"?>
<!-- Generator: Adobe Illustrator 21.0.0, SVG Export Plug-In . SVG Version: 6.00 Build 0)  -->
<svg version="1.1" id="图层_1" xmlns="http://www.w3.org/2000/svg" xmlns:xlink="http://www.w3.org/1999/xlink" x="0px" y="0px"
	 width="80px" height="80px" viewBox="0 0 80 80" enable-background="new 0 0 80 80" xml:space="preserve">
<g>
	<path fill="#848484" d="M6.009,24.767h42.232c2.754,0,5.008-2.253,5.008-5.008s-2.253-5.008-5.008-5.008H6.009
		c-2.754,0-5.008,2.253-5.008,5.008S3.255,24.767,6.009,24.767z"/>
	<path fill="#848484" d="M78.612,59.72L51.036,32.144c-0.329-0.387-0.706-0.728-1.137-1.001c-0.02-0.013-0.041-0.021-0.061-0.033
		c-0.229-0.141-0.464-0.272-0.716-0.375c-0.236-0.099-0.48-0.168-0.726-0.227c-0.056-0.013-0.107-0.036-0.163-0.048
		c-0.322-0.066-0.648-0.101-0.976-0.099c-0.006,0-0.011-0.002-0.017-0.002H5.008C2.253,30.359,0,32.612,0,35.367
		c0,2.754,2.253,5.008,5.008,5.008H45.81l26.074,26.074c1.85,1.85,4.878,1.85,6.728,0S80.463,61.571,78.612,59.72z"/>
	<path fill="#848484" d="M66.853,27.354c4.177,0,7.595-3.418,7.595-7.595s-3.418-7.595-7.595-7.595
		c-4.177,0-7.595,3.418-7.595,7.595S62.676,27.354,66.853,27.354z"/>
</g>
</svg>
