<?xml version="1.0" encoding="utf-8"?>
<!-- Generator: Adobe Illustrator 21.0.0, SVG Export Plug-In . SVG Version: 6.00 Build 0)  -->
<svg version="1.1" id="图层_1" xmlns="http://www.w3.org/2000/svg" xmlns:xlink="http://www.w3.org/1999/xlink" x="0px" y="0px"
	 width="80px" height="80px" viewBox="0 0 80 80" enable-background="new 0 0 80 80" xml:space="preserve">
<path fill="#848484" d="M53.162,12.252l14.586,14.586l-6.009,1.149l-1.812,0.346l-1.304,1.304l-9.358,9.358l-1.285,1.285
	l-0.356,1.781L43.76,61.383L33.174,50.796l-4.243-4.243l0,0L18.617,36.24l19.322-3.864l1.781-0.356l1.285-1.285l9.358-9.358
	l1.304-1.304l0.346-1.812L53.162,12.252 M49.396,0L46.12,17.134l-9.358,9.358L6.447,32.555l18.514,18.514L0,76.03L3.97,80
	l24.961-24.961l18.514,18.514l6.063-30.315l9.358-9.358L80,30.604L49.396,0L49.396,0z"/>
</svg>
