<?xml version="1.0" encoding="utf-8"?>
<!-- Generator: Adobe Illustrator 21.0.0, SVG Export Plug-In . SVG Version: 6.00 Build 0)  -->
<svg version="1.1" id="图层_1" xmlns="http://www.w3.org/2000/svg" xmlns:xlink="http://www.w3.org/1999/xlink" x="0px" y="0px"
	 width="80px" height="80px" viewBox="0 0 80 80" enable-background="new 0 0 80 80" xml:space="preserve">
<g>
	<path fill="#848484" d="M68.367,48.846c-0.019-0.03-0.039-0.059-0.058-0.089l-9.636-14.526l0.784-0.424
		c0.565-0.305,0.615-1.141,0.053-1.451c-0.004-0.002-0.008-0.005-0.013-0.007l-3.206-1.708L46.208,15.439
		c-1.473-2.221-3.841-3.332-6.208-3.332c-2.367,0-4.735,1.111-6.208,3.332l-9.973,15.036l-1.313-0.693
		c-0.568-0.299-1.29,0.124-1.235,0.763c0,0.005,0.001,0.009,0.001,0.014l0.328,3.26l-9.909,14.938
		c-0.02,0.03-0.039,0.059-0.058,0.089c-2.58,4.012,0.7,9.297,5.47,9.297h19.798v1.189c0,0.642,0.711,1.084,1.251,0.736
		c0.004-0.003,0.008-0.005,0.012-0.008l2.891-1.918h21.841C67.666,58.143,70.947,52.858,68.367,48.846z M65.008,52.854
		c-0.34,0.623-1.074,1.289-2.112,1.289H40.733l-2.569-1.704c-0.004-0.003-0.008-0.005-0.012-0.008
		c-0.54-0.347-1.251,0.094-1.251,0.736v0.975H17.104c-1.038,0-1.772-0.666-2.112-1.289c-0.247-0.453-0.447-1.14,0.004-1.84
		l0.029-0.045l10.152-15.305l2.836-1.549c0.004-0.002,0.008-0.005,0.013-0.007c0.559-0.316,0.5-1.151-0.068-1.45l-0.583-0.307
		l9.751-14.7c0.65-0.98,1.698-1.543,2.875-1.543s2.224,0.562,2.875,1.543l10.186,15.357l-0.268,2.967
		c0,0.005-0.001,0.01-0.001,0.014c-0.049,0.64,0.678,1.056,1.243,0.751l1.105-0.597l9.835,14.827l0.028,0.043
		C65.455,51.714,65.255,52.401,65.008,52.854z"/>
	<path fill="#848484" d="M40,0C17.909,0,0,17.909,0,40c0,22.091,17.909,40,40,40c22.091,0,40-17.909,40-40C80,17.909,62.091,0,40,0z
		 M40,76C20.15,76,4,59.85,4,40S20.15,4,40,4s36,16.15,36,36S59.85,76,40,76z"/>
</g>
</svg>
