<?xml version="1.0" encoding="utf-8"?>
<!-- Generator: Adobe Illustrator 21.0.0, SVG Export Plug-In . SVG Version: 6.00 Build 0)  -->
<svg version="1.1" id="图层_1" xmlns="http://www.w3.org/2000/svg" xmlns:xlink="http://www.w3.org/1999/xlink" x="0px" y="0px"
	 width="80px" height="80px" viewBox="0 0 80 80" enable-background="new 0 0 80 80" xml:space="preserve">
<g>
	<path fill="#848484" d="M12.473,43.614l31.083,20.617c0.025,0.017,0.051,0.033,0.076,0.05c3.434,2.209,7.957-0.6,7.957-4.682
		V20.402c0-4.083-4.524-6.891-7.957-4.682c-0.025,0.016-0.051,0.033-0.076,0.05L12.473,36.386
		C9.887,38.101,9.887,41.898,12.473,43.614z"/>
	<path fill="#848484" d="M59.513,65.056h5.993c2.187,0,3.96-1.773,3.96-3.96V18.904c0-2.187-1.773-3.96-3.96-3.96h-5.993
		c-2.187,0-3.96,1.773-3.96,3.96v42.191C55.553,63.283,57.326,65.056,59.513,65.056z"/>
</g>
</svg>
