<?xml version="1.0" encoding="utf-8"?>
<!-- Generator: Adobe Illustrator 21.0.0, SVG Export Plug-In . SVG Version: 6.00 Build 0)  -->
<svg version="1.1" id="图层_1" xmlns="http://www.w3.org/2000/svg" xmlns:xlink="http://www.w3.org/1999/xlink" x="0px" y="0px"
	 width="80px" height="80px" viewBox="0 0 80 80" enable-background="new 0 0 80 80" xml:space="preserve">
<g>
	<path fill="#848484" d="M40,7C21.85,7,7,21.85,7,40v0c0,18.15,14.85,33,33,33c18.15,0,33-14.85,33-33v0C73,21.85,58.15,7,40,7z
		 M40,66.053c-14.365,0-26.053-11.687-26.053-26.053c0-14.365,11.687-26.052,26.053-26.052S66.053,25.635,66.053,40
		S54.365,66.053,40,66.053z"/>
	<path fill="#848484" d="M51.923,36.856L35.051,25.665c-0.015-0.01-0.03-0.02-0.045-0.029c-2.031-1.307-4.708,0.355-4.708,2.77
		v23.189c0,2.416,2.676,4.077,4.708,2.77c0.015-0.01,0.03-0.02,0.045-0.029l16.872-11.192
		C54.172,41.651,54.172,38.348,51.923,36.856z"/>
</g>
</svg>
