<?xml version="1.0" encoding="utf-8"?>
<!-- Generator: Adobe Illustrator 21.0.0, SVG Export Plug-In . SVG Version: 6.00 Build 0)  -->
<svg version="1.1" id="图层_1" xmlns="http://www.w3.org/2000/svg" xmlns:xlink="http://www.w3.org/1999/xlink" x="0px" y="0px"
	 width="80px" height="80px" viewBox="0 0 80 80" enable-background="new 0 0 80 80" xml:space="preserve">
<g>
	<path fill="#848484" d="M10.453,33.72c2.933-13.418,14.414-22.762,27.472-23.669v5.961l11.564-8.006L37.924,0v6.512
		C23.25,7.444,10.263,17.924,6.976,32.96c-3.381,15.466,4.558,30.86,18.198,37.552l0.782-3.579
		C14.206,60.758,7.484,47.301,10.453,33.72z"/>
	<path fill="#848484" d="M54.826,9.846l-0.782,3.579C65.794,19.6,72.516,33.057,69.547,46.638
		c-2.759,12.624-13.086,21.645-25.172,23.425v-6.075l-11.564,8.006L44.375,80v-6.373c13.714-1.823,25.535-11.984,28.648-26.229
		C76.405,31.932,68.466,16.538,54.826,9.846z"/>
	<polygon fill="#848484" points="19.651,40.068 36.219,49.519 36.219,44.923 58.014,44.923 58.014,35.256 36.219,35.256 
		36.219,30.616 	"/>
</g>
</svg>
