<?xml version="1.0" encoding="utf-8"?>
<!-- Generator: Adobe Illustrator 21.0.0, SVG Export Plug-In . SVG Version: 6.00 Build 0)  -->
<svg version="1.1" id="图层_1" xmlns="http://www.w3.org/2000/svg" xmlns:xlink="http://www.w3.org/1999/xlink" x="0px" y="0px"
	 width="80px" height="80px" viewBox="0 0 80 80" enable-background="new 0 0 80 80" xml:space="preserve">
<g>
	<path fill="#848484" d="M24.225,34.254H5.746C2.586,34.254,0,36.84,0,40c0,3.161,2.586,5.746,5.746,5.746h18.479
		c3.16,0,5.746-2.586,5.746-5.746C29.972,36.84,27.386,34.254,24.225,34.254z"/>
	<path fill="#848484" d="M74.254,34.254H55.775c-3.161,0-5.746,2.586-5.746,5.746c0,3.161,2.586,5.746,5.746,5.746h18.479
		C77.414,45.746,80,43.161,80,40C80,36.84,77.414,34.254,74.254,34.254z"/>
	<path fill="#848484" d="M40,33.577c-3.532,0-6.423,2.89-6.423,6.423c0,3.532,2.89,6.423,6.423,6.423
		c3.532,0,6.423-2.89,6.423-6.423C46.423,36.468,43.532,33.577,40,33.577z"/>
</g>
</svg>
