<svg id="图层_1" data-name="图层 1" xmlns="http://www.w3.org/2000/svg" viewBox="0 0 80 80"><defs><style>.cls-1{fill:#848484;}</style></defs><title>marvelIcon_2</title><path class="cls-1" d="M40,80A11,11,0,0,0,51,69l0,0H29l0,0A11,11,0,0,0,40,80ZM77.19,54.15c-3.34-3.58-9.58-9-9.58-26.64A27.26,27.26,0,0,0,45.53.73v0A23.88,23.88,0,0,0,40.09,0a20.48,20.48,0,0,0-5.61.71v0A27.26,27.26,0,0,0,12.39,27.51c0,17.66-6.24,23.05-9.58,26.64A5.39,5.39,0,0,0,1.33,57.9a5.53,5.53,0,0,0,5.54,5.52H73.13a5.53,5.53,0,0,0,5.54-5.52A5.39,5.39,0,0,0,77.19,54.15Z"/></svg>