<?xml version="1.0" encoding="utf-8"?>
<!-- Generator: Adobe Illustrator 21.0.0, SVG Export Plug-In . SVG Version: 6.00 Build 0)  -->
<svg version="1.1" id="图层_1" xmlns="http://www.w3.org/2000/svg" xmlns:xlink="http://www.w3.org/1999/xlink" x="0px" y="0px"
	 width="80px" height="80px" viewBox="0 0 80 80" enable-background="new 0 0 80 80" xml:space="preserve">
<path fill="#848484" d="M75.483,25.232c0-0.207-0.004-0.404-0.043-0.61c-0.048-0.26-0.14-0.495-0.247-0.737
	c-0.045-0.099-0.046-0.207-0.102-0.303c-0.027-0.046-0.074-0.071-0.102-0.116c-0.162-0.261-0.374-0.478-0.609-0.689
	c-0.09-0.079-0.167-0.166-0.264-0.234c-0.09-0.065-0.146-0.159-0.244-0.216L35.968,0.444c-0.693-0.4-1.469-0.475-2.205-0.352
	C33.61,0.063,33.47,0,33.309,0c-1.382,0-2.512,1.13-2.512,2.512v73.237H6.643c-1.169,0-2.126,0.956-2.126,2.126S5.473,80,6.643,80
	h53.333c1.169,0,2.126-0.957,2.126-2.126s-0.956-2.126-2.126-2.126H35.821v-25.68c0.047-0.024,0.1-0.022,0.146-0.049l37.904-21.884
	c0.098-0.056,0.153-0.151,0.243-0.215c0.098-0.069,0.176-0.156,0.266-0.236c0.234-0.211,0.446-0.427,0.608-0.687
	c0.029-0.045,0.076-0.069,0.103-0.116c0.055-0.096,0.057-0.204,0.102-0.304c0.107-0.242,0.199-0.477,0.247-0.736
	C75.48,25.636,75.483,25.438,75.483,25.232z M35.821,42.406V8.057l29.747,17.174L35.821,42.406z"/>
</svg>
