<?xml version="1.0" encoding="utf-8"?>
<!-- Generator: Adobe Illustrator 21.0.0, SVG Export Plug-In . SVG Version: 6.00 Build 0)  -->
<svg version="1.1" id="图层_1" xmlns="http://www.w3.org/2000/svg" xmlns:xlink="http://www.w3.org/1999/xlink" x="0px" y="0px"
	 width="80px" height="80px" viewBox="0 0 80 80" enable-background="new 0 0 80 80" xml:space="preserve">
<g>
	<path fill="#848484" d="M68.032,5.499h-21.24v6.9h21.24c2.794,0,5.067,2.273,5.067,5.067v15.741H80V17.466
		C80,10.884,74.615,5.499,68.032,5.499z"/>
	<path fill="#848484" d="M73.1,62.534c0,2.794-2.273,5.067-5.067,5.067h-21.24v6.9h21.24C74.615,74.501,80,69.116,80,62.534V48.518
		h-6.9V62.534z"/>
	<path fill="#848484" d="M6.9,62.534V48.518H0v14.016c0,6.582,5.386,11.968,11.968,11.968h19.515v-6.9H11.968
		C9.173,67.601,6.9,65.328,6.9,62.534z"/>
	<path fill="#848484" d="M6.9,17.466c0-2.794,2.273-5.067,5.067-5.067h19.515v-6.9H11.968C5.386,5.499,0,10.884,0,17.466v15.741h6.9
		V17.466z"/>
	<circle fill="#848484" cx="40" cy="40" r="13.261"/>
</g>
</svg>
