<?xml version="1.0" encoding="utf-8"?>
<!-- Generator: Adobe Illustrator 21.0.0, SVG Export Plug-In . SVG Version: 6.00 Build 0)  -->
<svg version="1.1" id="图层_1" xmlns="http://www.w3.org/2000/svg" xmlns:xlink="http://www.w3.org/1999/xlink" x="0px" y="0px"
	 width="80px" height="80px" viewBox="0 0 80 80" enable-background="new 0 0 80 80" xml:space="preserve">
<g>
	<path fill="#848484" d="M10.453,33.72c2.933-13.418,14.414-22.762,27.472-23.669v5.961l11.564-8.006L37.924,0v6.512
		C23.25,7.444,10.263,17.924,6.976,32.96c-3.381,15.466,4.558,30.86,18.198,37.552l0.782-3.579
		C14.206,60.758,7.484,47.301,10.453,33.72z"/>
	<path fill="#848484" d="M54.826,9.846l-0.782,3.579C65.794,19.6,72.516,33.057,69.547,46.638
		c-2.759,12.624-13.086,21.645-25.172,23.425v-6.075l-11.564,8.006L44.375,80v-6.373c13.714-1.823,25.535-11.984,28.648-26.229
		C76.405,31.932,68.466,16.538,54.826,9.846z"/>
	<path fill="#848484" d="M36.55,57.17l0.491-1.226c0.392-0.978,1.444-1.726,2.337-1.661c0.891,0.064,3.528,0.62,3.939,1.586
		l0.525,1.218c0.411,0.967,1.544,1.422,2.511,1.007l2.344-0.999c0.966-0.415,1.419-1.544,1.007-2.511l-0.521-1.222
		c-0.417-0.966-0.207-2.229,0.461-2.801c0.67-0.575,2.951-2.074,3.926-1.681l1.226,0.491c0.977,0.392,2.097-0.087,2.488-1.064
		l0.949-2.367c0.391-0.975-0.087-2.096-1.064-2.488l-1.226-0.491c-0.976-0.391-1.727-1.443-1.661-2.334
		c0.063-0.892,0.618-3.53,1.587-3.942l1.219-0.519c0.966-0.415,1.419-1.545,1.007-2.513l-1.001-2.343
		c-0.413-0.968-1.546-1.423-2.511-1.007l-1.222,0.522c-0.965,0.413-2.227,0.203-2.802-0.465c-0.573-0.669-2.07-2.948-1.678-3.925
		l0.492-1.227c0.392-0.976-0.087-2.096-1.064-2.488l-2.369-0.95c-0.978-0.392-2.097,0.088-2.488,1.064l-0.492,1.227
		c-0.392,0.977-1.443,1.727-2.334,1.662c-0.89-0.063-3.526-0.618-3.937-1.585l-0.525-1.223c-0.412-0.969-1.544-1.422-2.511-1.007
		l-2.342,1.003c-0.969,0.415-1.422,1.544-1.007,2.513l0.519,1.219c0.417,0.968,0.206,2.228-0.461,2.804
		c-0.671,0.572-2.953,2.071-3.93,1.68l-1.227-0.494c-0.978-0.392-2.097,0.088-2.488,1.064l-0.95,2.369
		c-0.391,0.975,0.086,2.096,1.064,2.488l1.228,0.492c0.977,0.392,1.728,1.44,1.663,2.332c-0.062,0.892-0.619,3.527-1.587,3.939
		l-1.221,0.522c-0.968,0.413-1.421,1.543-1.007,2.511l1.003,2.346c0.413,0.968,1.546,1.423,2.511,1.007l1.222-0.521
		c0.964-0.412,2.228-0.203,2.802,0.465c0.572,0.668,2.069,2.946,1.677,3.924l-0.492,1.227c-0.39,0.974,0.087,2.096,1.064,2.488
		l2.368,0.949C35.04,58.625,36.159,58.144,36.55,57.17z M32.302,36.914c1.705-4.251,6.534-6.315,10.784-4.611
		c4.251,1.705,6.318,6.533,4.613,10.784c-1.703,4.248-6.533,6.313-10.785,4.609C32.664,45.992,30.598,41.162,32.302,36.914z"/>
</g>
</svg>
