<?xml version="1.0" encoding="utf-8"?>
<!-- Generator: Adobe Illustrator 21.0.0, SVG Export Plug-In . SVG Version: 6.00 Build 0)  -->
<svg version="1.1" id="图层_1" xmlns="http://www.w3.org/2000/svg" xmlns:xlink="http://www.w3.org/1999/xlink" x="0px" y="0px"
	 width="80px" height="80px" viewBox="0 0 80 80" enable-background="new 0 0 80 80" xml:space="preserve">
<g>
	<rect x="3.817" y="70.042" fill="#848484" width="72.365" height="9.958"/>
	<path fill="#848484" d="M20.26,23.192c0.695,2.929,2.63,5.181,5.067,6.145c1.352,0.535,2.361,1.806,2.471,3.413l0.462,6.753h-1.987
		c-2.435,0-4.428,2.241-4.428,4.979s1.993,4.979,4.428,4.979h2.783c0.901,5.111,4.255,9.464,8.856,10.408
		c6.413,1.316,12.109-3.608,13.053-10.408h2.761c2.435,0,4.428-2.241,4.428-4.979s-1.993-4.979-4.428-4.979H51.74l0.462-6.753
		c0.11-1.607,1.119-2.878,2.472-3.413c2.437-0.964,4.372-3.215,5.066-6.145L64.08,4.886C64.665,2.42,63.012,0,60.742,0H19.258
		c-2.27,0-3.923,2.42-3.338,4.886L20.26,23.192z"/>
</g>
</svg>
