<?xml version="1.0" encoding="utf-8"?>
<!-- Generator: Adobe Illustrator 21.0.0, SVG Export Plug-In . SVG Version: 6.00 Build 0)  -->
<svg version="1.1" id="图层_1" xmlns="http://www.w3.org/2000/svg" xmlns:xlink="http://www.w3.org/1999/xlink" x="0px" y="0px"
	 width="80px" height="80px" viewBox="0 0 80 80" enable-background="new 0 0 80 80" xml:space="preserve">
<path fill="#848484" d="M80,7.24H64.792H15.208H0v6.146h7.66C7.556,13.89,7.5,14.412,7.5,14.948v36.25
	c0,4.257,3.451,7.708,7.708,7.708h16.719v7.5H21.458v6.354h37.083v-6.354H48.073v-7.5h16.719c4.257,0,7.708-3.451,7.708-7.708
	v-36.25c0-0.535-0.056-1.058-0.16-1.563H80V7.24z M65.833,26.091l-17.587-8.667c-0.845-0.413-1.836-0.456-2.707-0.104
	c-0.876,0.347-1.564,1.053-1.893,1.937l-7.155,19.31l-10.806-9.089c-1.395-1.177-3.491-0.999-4.676,0.384l-6.843,7.993V14.948
	c0-0.574,0.467-1.042,1.042-1.042h49.583c0.574,0,1.042,0.467,1.042,1.042V26.091z M64.792,52.24H15.208
	c-0.575,0-1.042-0.467-1.042-1.042v-3.089l9.76-11.4l11.898,10.01c0.837,0.701,1.963,0.957,2.996,0.671
	c1.047-0.275,1.896-1.047,2.274-2.064l7.52-20.286l17.22,8.486v17.673C65.833,51.772,65.366,52.24,64.792,52.24z"/>
</svg>
